<?xml version="1.0" standalone="no"?>
<!DOCTYPE svg PUBLIC "-//W3C//DTD SVG 20010904//EN"
 "http://www.w3.org/TR/2001/REC-SVG-20010904/DTD/svg10.dtd">
<svg version="1.0" xmlns="http://www.w3.org/2000/svg"
 width="768.000000pt" height="1372.000000pt" viewBox="0 0 768.000000 1372.000000"
 preserveAspectRatio="xMidYMid meet">
<metadata>
Created by potrace 1.16, written by Peter Selinger 2001-2019
</metadata>
<g transform="translate(0.000000,1372.000000) scale(0.100000,-0.100000)"
fill="#000000" stroke="none">
<path d="M2874 13477 c-6 -16 -15 -18 -127 -20 -48 -1 -91 -6 -95 -12 -12 -17
-163 -91 -262 -129 -52 -20 -119 -48 -149 -62 -29 -13 -89 -32 -134 -40 -44
-9 -113 -31 -153 -50 -40 -19 -76 -34 -81 -34 -4 0 -55 -29 -111 -64 -57 -36
-163 -95 -235 -131 -147 -74 -291 -155 -322 -180 -11 -9 -40 -28 -65 -41 -25
-14 -76 -47 -115 -75 -38 -27 -85 -60 -102 -72 -18 -12 -33 -27 -33 -34 0 -6
-28 -31 -63 -56 -34 -25 -74 -58 -88 -73 -14 -16 -56 -57 -93 -91 -66 -61
-170 -184 -195 -231 -10 -19 -9 -34 9 -85 33 -95 41 -156 24 -197 -8 -19 -17
-62 -19 -95 -2 -33 -6 -72 -9 -85 -3 -14 -9 -108 -12 -210 -3 -102 -8 -216
-10 -255 -4 -83 -31 -337 -40 -380 -4 -16 -8 -77 -9 -135 -1 -97 -4 -110 -33
-165 -18 -33 -32 -64 -32 -69 0 -6 -16 -52 -36 -102 l-35 -92 32 -59 c29 -52
49 -75 64 -73 3 0 20 -16 38 -35 18 -20 44 -42 57 -49 14 -7 41 -22 61 -33 19
-11 51 -20 71 -20 21 1 42 -6 53 -16 10 -11 25 -15 36 -12 10 4 19 3 19 -2 0
-19 241 -18 310 2 30 8 64 17 75 19 22 3 63 25 185 98 72 42 162 123 227 204
115 143 143 181 143 193 0 8 7 11 20 8 11 -3 20 -1 20 4 0 5 -5 9 -10 9 -6 0
-2 12 8 28 37 57 51 83 101 194 11 25 24 49 29 52 5 3 21 -41 36 -97 15 -56
34 -118 41 -137 l13 -35 12 30 c9 24 8 31 -4 40 -13 10 -12 13 4 23 12 7 21 8
25 2 3 -6 -2 -10 -12 -10 -17 -1 -17 -1 0 -11 9 -6 15 -14 13 -18 -3 -4 -6
-27 -8 -50 -1 -33 -7 -45 -23 -51 -18 -7 -18 -9 -2 -15 9 -4 17 -13 17 -21 0
-23 -23 -64 -36 -64 -7 0 -11 -6 -8 -14 8 -20 -13 -56 -34 -57 -10 0 -12 -3
-4 -6 14 -5 17 -49 3 -57 -4 -3 -14 -26 -21 -50 -10 -35 -19 -47 -41 -55 -36
-13 -38 -20 -2 -13 23 4 25 2 18 -14 -4 -10 -14 -39 -21 -63 -8 -25 -20 -52
-28 -60 -23 -27 -76 -127 -76 -144 0 -9 -3 -17 -7 -17 -10 0 -9 -75 2 -117 4
-17 16 -41 26 -52 11 -11 19 -25 19 -31 0 -5 7 -10 15 -10 7 0 18 -6 22 -13 4
-7 28 -21 53 -31 67 -26 76 -37 48 -53 -20 -13 -20 -14 -3 -10 18 3 20 -1 18
-35 -1 -28 4 -43 19 -58 16 -14 18 -20 7 -20 -10 -1 -9 -3 4 -11 9 -5 17 -21
17 -34 0 -14 4 -25 10 -25 5 0 6 -8 3 -17 -6 -15 -4 -16 9 -6 21 18 25 10 22
-42 -1 -25 1 -47 6 -50 5 -3 7 -11 4 -19 -3 -7 6 -17 20 -24 13 -6 27 -20 31
-31 3 -12 12 -21 18 -21 7 0 27 -14 46 -30 18 -16 38 -27 43 -24 6 4 13 2 17
-3 8 -12 111 -63 127 -63 7 0 39 -16 71 -35 32 -19 64 -35 71 -35 6 0 12 -7
12 -16 0 -8 4 -12 10 -9 12 8 70 -22 70 -36 0 -8 4 -8 13 -1 7 6 29 8 52 4 87
-15 201 -4 219 20 17 22 42 28 61 14 15 -11 15 -13 1 -25 -9 -7 -23 -10 -32
-7 -11 4 -18 -1 -21 -14 -3 -11 -12 -21 -19 -21 -8 -1 -19 -2 -25 -3 -6 0 -17
-10 -25 -20 -13 -18 -14 -18 -20 -1 -6 15 -8 15 -20 -6 -7 -13 -13 -18 -14
-11 0 7 -5 10 -12 6 -16 -10 -69 -13 -63 -4 3 5 -11 7 -31 5 -41 -3 -76 4 -70
14 3 4 -3 7 -12 8 -51 4 -69 9 -86 25 -10 9 -23 15 -28 12 -4 -3 -8 -1 -8 4 0
5 -8 12 -17 15 -10 4 -37 18 -60 31 -24 14 -43 23 -43 19 0 -4 -5 -2 -12 5 -7
7 -20 12 -29 12 -9 0 -20 7 -23 16 -4 9 -9 14 -13 11 -6 -7 -88 38 -111 60 -7
7 -18 13 -24 13 -6 0 -18 8 -27 18 -21 24 -51 35 -51 19 0 -6 -7 -2 -15 10 -9
13 -22 20 -30 17 -18 -7 -20 -31 -2 -37 10 -3 10 -11 0 -39 -7 -19 -13 -44
-13 -57 0 -12 -7 -24 -15 -27 -17 -7 -21 -64 -5 -64 15 0 0 -52 -19 -68 -14
-12 -14 -13 2 -8 11 3 17 0 17 -9 0 -8 -6 -15 -14 -15 -11 0 -13 -24 -13 -117
0 -86 -5 -132 -18 -170 -9 -29 -21 -51 -25 -48 -5 3 -6 55 -3 115 2 61 2 110
-1 110 -6 0 -71 -133 -124 -255 -17 -38 -49 -122 -70 -185 -22 -63 -44 -126
-50 -140 -6 -14 -22 -65 -37 -115 -15 -49 -37 -101 -49 -115 -38 -42 -141
-201 -189 -290 -54 -102 -121 -270 -141 -360 -9 -36 -20 -66 -26 -68 -5 -2
-10 -11 -10 -20 0 -9 -7 -26 -15 -36 -8 -11 -15 -28 -15 -38 0 -10 -4 -26 -9
-36 -31 -60 -61 -152 -95 -284 -16 -61 -43 -107 -63 -108 -7 0 -13 -11 -13
-24 0 -13 -7 -29 -15 -36 -10 -8 -13 -21 -9 -37 5 -20 3 -24 -12 -21 -16 2
-19 -4 -20 -34 0 -21 -5 -48 -11 -60 -14 -30 -35 -181 -28 -200 3 -8 -1 -20
-9 -27 -7 -6 -12 -21 -9 -31 3 -11 -2 -35 -11 -54 -19 -41 -20 -63 -3 -69 9
-4 9 -7 -1 -15 -10 -6 -12 -45 -11 -156 2 -81 6 -149 11 -152 5 -3 6 -9 4 -13
-7 -11 14 -144 26 -158 11 -13 11 -18 32 -178 9 -66 20 -140 26 -165 5 -25 12
-65 15 -90 8 -55 36 -150 74 -250 26 -67 29 -91 34 -235 5 -142 10 -176 42
-295 19 -74 47 -189 60 -255 48 -230 106 -408 198 -605 82 -175 90 -207 87
-360 -1 -74 -2 -205 -1 -290 0 -85 0 -245 0 -355 0 -151 4 -221 17 -286 15
-73 16 -93 5 -129 -10 -35 -19 -45 -55 -60 -64 -29 -120 -34 -212 -20 -65 10
-96 11 -136 2 -29 -6 -79 -14 -112 -18 -44 -4 -64 -12 -81 -29 -19 -22 -31
-25 -116 -27 -93 -3 -94 -3 -94 -28 0 -25 1 -25 105 -30 69 -3 115 -11 135
-21 39 -21 92 -40 130 -46 17 -3 46 -20 65 -38 19 -17 59 -44 88 -59 44 -22
61 -26 98 -20 36 5 45 3 50 -11 4 -9 2 -21 -5 -28 -6 -6 -11 -18 -11 -28 0 -9
-45 -62 -100 -119 -77 -78 -100 -108 -100 -128 1 -35 84 -224 104 -237 11 -7
31 -2 70 18 48 23 59 34 85 84 16 32 50 90 76 128 77 114 106 188 112 280 3
49 17 119 36 180 26 85 30 114 29 193 -2 82 1 102 25 160 33 79 36 173 10 262
-24 83 -33 164 -17 158 13 -4 52 -133 43 -142 -2 -2 3 -18 12 -36 9 -17 19
-68 22 -115 6 -82 5 -85 -27 -136 -30 -46 -34 -61 -38 -136 -4 -75 -2 -88 17
-113 27 -38 27 -48 -4 -62 -32 -14 -33 -32 -1 -24 14 3 31 3 39 0 13 -5 13
-10 -1 -43 -14 -33 -21 -38 -47 -37 -41 1 -65 -46 -65 -132 0 -59 1 -62 20
-52 11 6 35 26 53 45 19 19 37 35 41 35 16 0 2 -41 -34 -98 -22 -34 -40 -69
-40 -77 0 -8 -9 -24 -20 -35 -11 -11 -36 -40 -54 -65 -19 -24 -50 -58 -69 -74
-32 -29 -67 -85 -67 -109 0 -5 9 -12 20 -15 21 -5 21 -6 -2 -50 l-23 -45 -142
0 c-156 -1 -209 -11 -266 -50 -43 -29 -92 -94 -103 -135 -4 -18 -13 -27 -25
-27 -11 0 -44 -14 -73 -30 -42 -24 -58 -40 -70 -70 -9 -22 -20 -40 -25 -40
-16 0 -103 -83 -128 -123 -34 -54 -52 -108 -63 -192 -6 -38 -15 -82 -21 -98
-9 -20 -8 -31 0 -41 30 -36 137 -24 143 16 5 32 26 33 30 2 3 -24 12 -32 63
-52 57 -23 64 -23 127 -12 85 16 123 16 351 1 142 -10 205 -11 263 -2 41 6
154 11 251 11 182 0 292 12 330 36 12 8 32 14 43 14 56 0 110 24 154 68 25 25
46 49 46 53 0 22 95 172 113 179 32 11 38 4 31 -39 -7 -45 7 -59 39 -42 33 18
78 86 84 128 3 21 10 43 15 50 37 47 49 91 51 183 2 108 0 114 -83 202 -27 29
-50 56 -50 60 0 15 -44 20 -54 6 -6 -8 -22 -20 -35 -27 -33 -18 -50 2 -58 67
l-6 51 35 -5 c29 -5 39 -1 65 25 25 24 33 43 38 85 8 65 37 116 65 116 23 0
95 -34 105 -50 3 -5 45 -28 93 -50 131 -62 295 -114 395 -126 55 -6 58 -9 91
-58 19 -28 58 -74 88 -102 73 -69 112 -78 358 -80 192 -1 356 -16 391 -34 41
-22 167 -8 309 35 30 9 66 19 80 22 14 3 30 9 35 13 6 5 28 11 50 15 192 32
272 55 290 85 9 15 82 60 97 60 7 0 35 8 63 19 27 10 74 26 104 36 52 16 54
16 73 -2 17 -18 18 -24 7 -69 -20 -82 -73 -126 -166 -139 -30 -4 -54 -13 -57
-21 -16 -42 56 -116 130 -132 107 -24 280 -37 502 -37 217 0 232 -1 232 -18 0
-10 -5 -28 -11 -39 -6 -12 -15 -52 -20 -91 -5 -38 -14 -77 -21 -85 -9 -10 -13
-50 -13 -118 0 -92 2 -106 21 -125 29 -28 104 -38 123 -15 21 25 83 19 256
-25 157 -40 176 -41 262 -23 21 4 56 -1 102 -15 120 -37 167 -25 155 38 -8 40
0 39 41 -5 l34 -36 93 7 c51 4 111 11 134 16 25 5 65 5 100 -1 85 -14 108 -12
134 10 18 16 37 20 94 20 96 0 132 19 169 90 38 73 32 123 -21 194 -54 72 -53
70 -68 155 -9 54 -27 103 -62 171 -27 52 -52 113 -55 135 -10 65 -87 222 -165
340 -48 73 -79 132 -93 177 -11 37 -42 110 -70 164 l-50 97 7 111 c7 119 -9
261 -47 426 -11 47 -21 117 -22 155 -1 64 3 77 40 151 68 133 93 268 96 509 2
224 -19 350 -78 470 -38 79 -44 101 -49 175 -3 47 -7 94 -9 105 -3 11 -8 52
-11 90 -4 39 -13 97 -21 130 -8 33 -17 80 -20 105 -3 25 -11 57 -17 72 -9 25
-4 41 40 130 85 170 100 209 122 303 12 50 25 106 30 125 5 20 5 67 0 110 -11
97 -56 325 -69 349 -6 10 -15 36 -20 57 -5 22 -36 118 -69 214 -33 96 -76 238
-96 315 -59 222 -124 412 -183 530 -72 144 -131 284 -173 405 -98 287 -167
435 -291 620 l-44 65 -80 4 c-44 2 -87 7 -95 13 -13 8 -13 9 0 5 23 -6 199 15
235 29 47 18 125 76 140 104 8 16 50 76 93 132 126 165 129 170 162 235 17 35
36 66 41 69 10 6 129 182 129 190 0 3 13 25 30 49 16 23 38 65 49 92 11 28 30
66 44 85 13 20 29 51 36 69 7 19 26 66 41 104 16 39 31 87 35 108 3 21 12 37
19 37 21 0 37 77 37 170 -3 306 -11 458 -26 515 -22 77 -35 133 -39 165 -2 14
-15 68 -29 120 -34 129 -59 258 -53 269 3 4 -10 55 -29 112 -52 160 -96 334
-111 441 -7 53 -17 105 -22 115 -5 10 -22 54 -37 98 -15 44 -55 134 -89 201
-33 66 -72 147 -85 180 -40 97 -133 288 -145 296 -6 4 -7 10 -3 14 4 4 -3 18
-15 31 -12 13 -18 23 -14 23 5 0 -7 14 -25 31 -26 25 -42 31 -85 33 -45 2 -59
8 -87 36 -25 24 -33 39 -29 56 2 13 0 24 -6 24 -5 0 -30 20 -55 45 -26 25 -48
45 -51 45 -2 0 -18 14 -34 30 -17 17 -28 30 -26 30 3 0 -7 11 -22 25 -15 14
-30 25 -34 25 -5 0 -13 14 -19 30 -5 17 -15 30 -20 30 -6 0 -11 5 -11 11 0 16
-128 270 -146 290 -8 8 -14 19 -14 23 0 15 -125 169 -198 244 -112 115 -376
322 -412 322 -5 0 -10 4 -10 9 0 5 -8 11 -17 15 -10 3 -38 21 -63 41 -25 19
-51 37 -57 40 -29 11 -40 17 -78 40 -22 14 -51 29 -65 35 -14 6 -83 40 -155
77 -207 104 -415 184 -520 199 -16 3 -70 11 -120 19 -114 17 -193 24 -375 31
-80 3 -150 7 -157 9 -6 2 -13 -1 -15 -6 -2 -5 -30 4 -63 20 -33 16 -61 25 -63
20 -2 -5 -11 -5 -21 1 -10 5 -28 10 -42 12 -13 2 -30 7 -38 12 -8 5 -30 11
-50 13 -20 2 -37 8 -39 13 -5 14 -22 12 -28 -3z m2206 -2427 c0 -5 9 -10 20
-10 12 0 20 -7 20 -16 0 -9 -6 -14 -13 -11 -17 6 -28 -1 -50 -33 -10 -14 -21
-25 -25 -25 -4 0 -22 -11 -40 -24 -18 -12 -48 -23 -67 -24 -21 -1 -31 -5 -27
-11 3 -6 -2 -5 -11 3 -10 8 -21 11 -24 7 -4 -4 -1 -11 7 -16 8 -5 11 -12 7
-17 -5 -4 -11 -3 -15 2 -11 16 -56 39 -47 24 5 -8 4 -10 -4 -5 -6 4 -18 2 -26
-4 -11 -9 -15 -9 -15 -1 0 6 -4 11 -10 11 -5 0 -7 -8 -3 -17 3 -10 3 -15 -1
-12 -4 4 -8 16 -11 28 -4 19 0 21 53 21 68 0 104 9 96 22 -4 6 1 8 14 4 15 -5
34 7 82 54 57 56 90 74 90 50z m-1559 -664 c-9 -11 -8 -15 4 -20 8 -3 20 -17
25 -31 5 -14 13 -25 17 -25 5 0 8 -18 8 -40 1 -29 -3 -40 -14 -40 -11 0 -12
-3 -4 -11 11 -11 7 -24 -15 -59 -5 -7 -51 54 -52 68 0 6 -4 12 -10 12 -5 0
-10 7 -10 15 0 8 -9 24 -19 34 -18 18 -18 20 -3 26 13 5 14 8 3 14 -10 7 -9
11 7 22 19 14 22 19 22 39 0 6 12 10 26 10 21 0 24 -3 15 -14z m-831 -191
c-10 -12 -10 -15 4 -15 9 0 16 -7 16 -17 0 -13 3 -12 19 5 20 23 41 29 41 11
0 -5 5 -7 12 -3 8 5 9 -5 5 -36 -3 -27 -2 -38 3 -30 7 12 10 11 16 -5 7 -18 8
-18 15 1 7 17 8 17 8 -4 1 -20 4 -21 22 -11 15 8 19 8 15 0 -4 -6 0 -11 8 -11
17 0 18 -4 20 -58 2 -48 -30 -67 -78 -47 -20 9 -36 12 -36 9 0 -4 -11 5 -24
19 -16 17 -27 22 -34 15 -7 -7 -14 -4 -21 10 -6 11 -25 25 -42 31 -17 6 -28
15 -24 21 3 5 1 10 -4 10 -6 0 -11 -7 -11 -16 0 -8 -4 -13 -9 -9 -6 3 -8 14
-6 25 3 14 -2 20 -14 20 -22 0 -35 45 -17 58 6 5 29 10 51 11 22 1 43 8 48 16
4 8 13 15 19 15 7 0 6 -5 -2 -15z m2725 -197 c-4 -13 -32 -47 -62 -75 -29 -29
-59 -66 -64 -82 -7 -20 -23 -36 -47 -47 -92 -41 -206 -267 -236 -469 -2 -11
-11 -49 -21 -85 -9 -36 -19 -83 -21 -105 -6 -61 -13 -126 -19 -170 -3 -22 -7
-55 -8 -72 -3 -32 -16 -57 -18 -35 -3 32 -2 52 5 112 4 36 9 84 12 106 3 23 7
53 10 65 2 13 9 57 15 98 6 40 15 85 20 98 5 14 14 46 20 72 6 25 13 55 16 66
18 73 23 113 28 215 4 79 10 119 19 129 16 16 73 51 131 82 22 11 81 42 130
69 50 26 91 48 93 49 2 0 0 -9 -3 -21z m-2021 -160 c-3 -4 -2 -14 3 -20 4 -7
8 -17 8 -23 0 -5 7 -10 15 -10 8 0 26 -8 40 -18 13 -9 20 -17 15 -17 -6 0 -21
-20 -35 -45 -25 -46 -34 -53 -45 -35 -3 6 2 10 11 10 16 0 16 1 1 18 -18 20
-6 52 20 52 28 0 4 13 -27 15 -21 1 -28 -1 -20 -9 16 -16 12 -26 -11 -26 -18
0 -20 -5 -16 -37 5 -32 4 -35 -7 -21 -11 15 -17 16 -47 5 -19 -6 -37 -16 -40
-20 -8 -11 -50 15 -45 28 2 5 13 9 26 7 19 -2 21 0 10 13 -8 9 -8 15 -2 15 6
0 14 -4 17 -10 3 -5 11 -10 17 -10 7 0 6 5 -2 15 -10 12 -8 20 9 41 11 14 18
30 15 35 -3 5 4 9 15 9 12 0 20 3 19 8 -5 13 26 40 44 39 9 -1 14 -5 12 -9z
m0 -259 c33 -19 49 -49 27 -49 -5 0 -7 -10 -4 -22 5 -22 4 -22 -16 2 -11 14
-21 20 -21 14 0 -6 -11 -24 -25 -40 -14 -16 -25 -33 -25 -38 0 -5 -3 -7 -6 -3
-8 8 -34 -18 -34 -33 0 -6 -12 -3 -27 7 -15 10 -24 12 -20 6 5 -8 3 -13 -5
-13 -8 0 -14 -9 -14 -20 0 -21 66 -62 73 -45 10 28 23 40 31 28 8 -13 74 -15
66 -2 -2 4 5 7 17 6 11 -1 25 -9 30 -19 8 -14 6 -16 -7 -11 -14 5 -15 3 -5
-15 10 -19 9 -22 -9 -22 -11 0 -20 -5 -20 -11 0 -7 -9 -9 -23 -5 -16 4 -27 -1
-37 -14 -7 -10 -17 -17 -22 -14 -4 3 -8 0 -8 -6 0 -7 -6 -10 -14 -7 -7 3 -23
-1 -35 -9 -19 -14 -23 -13 -46 12 -16 17 -25 22 -25 12 0 -20 -67 -43 -85 -28
-10 9 -15 6 -20 -10 -5 -16 -10 -18 -20 -10 -9 8 -15 6 -20 -7 -5 -10 -7 -21
-7 -25 3 -15 -16 -8 -22 8 -3 8 -2 12 4 9 21 -13 9 19 -20 52 -29 33 -44 71
-18 45 19 -19 31 -14 25 9 -4 16 -3 18 9 8 8 -6 14 -17 14 -25 0 -16 37 -38
44 -26 3 5 -6 21 -18 37 -23 29 -23 30 -5 46 16 13 16 19 5 41 l-13 25 46 -5
c25 -3 48 -9 50 -15 2 -5 12 -16 22 -25 10 -9 16 -19 13 -23 -2 -4 5 -7 16 -6
14 1 19 6 14 17 -3 8 -7 21 -7 28 0 7 -6 11 -13 8 -7 -3 -15 1 -18 9 -2 7 -15
15 -28 17 -15 2 -24 11 -26 26 -4 25 15 30 24 7 4 -8 10 -15 15 -15 4 0 6 7 3
15 -5 11 -2 14 12 9 11 -4 25 -12 33 -18 12 -9 13 -8 8 7 -7 19 17 25 28 7 4
-6 11 -8 16 -4 5 3 7 10 4 15 -4 5 1 9 10 9 9 0 13 5 10 10 -3 6 1 10 10 10
12 0 13 4 6 18 -6 12 -5 21 5 30 8 7 14 10 14 7 0 -4 10 5 23 19 12 14 23 26
24 26 1 0 18 -9 37 -21z m501 -149 c-2 -4 2 -15 9 -25 11 -15 11 -21 1 -31 -7
-7 -11 -24 -10 -38 2 -18 -1 -23 -11 -19 -11 4 -14 -1 -10 -20 3 -17 -1 -27
-11 -31 -8 -4 -13 -13 -10 -20 3 -8 -1 -20 -9 -26 -11 -10 -14 -9 -14 4 0 10
-5 14 -10 11 -8 -5 -7 -11 1 -21 18 -22 -7 -104 -33 -104 -11 0 -16 -4 -12
-11 12 -20 -19 -29 -40 -11 -11 9 -16 11 -12 5 4 -7 3 -13 -2 -13 -6 0 -13 7
-16 16 -3 8 -9 13 -13 11 -5 -3 -8 14 -8 38 0 24 3 41 6 39 4 -2 6 4 4 13 -1
10 -9 17 -19 15 -9 -2 -16 2 -16 8 0 6 4 9 9 6 5 -3 14 1 21 9 11 13 10 14 -3
9 -23 -8 -42 36 -32 73 5 15 8 31 7 36 -3 11 26 8 33 -3 12 -19 54 -2 55 22 0
4 -10 16 -22 28 -24 22 -18 41 7 20 8 -7 15 -9 15 -5 0 4 6 3 13 -2 6 -6 20
-13 29 -16 13 -4 16 -2 12 11 -5 14 -2 13 13 -3 10 -11 26 -19 37 -17 10 2 22
-1 26 -8 13 -20 18 3 7 30 -17 42 -17 53 -1 39 7 -6 12 -15 9 -19z m-731 -280
c14 0 17 -5 12 -25 -7 -28 -1 -32 19 -12 9 9 10 19 3 30 -7 14 -4 17 19 17 15
0 36 -7 46 -14 15 -12 16 -17 6 -34 -7 -11 -19 -18 -26 -15 -8 3 -13 -3 -14
-18 0 -13 -3 -18 -6 -11 -2 6 -9 12 -14 12 -6 0 -7 -4 -4 -10 3 -5 -1 -10 -9
-10 -9 0 -16 5 -16 11 0 6 -7 3 -16 -6 -12 -12 -19 -13 -30 -4 -8 6 -20 9 -28
6 -18 -7 -42 20 -48 56 -4 23 -3 25 9 15 12 -10 17 -9 25 6 7 12 17 16 32 12
11 -3 29 -6 40 -6z m2313 -4780 c-2 -11 -9 -26 -15 -32 -19 -19 -14 -37 13
-50 14 -6 25 -17 25 -25 0 -12 16 -17 50 -15 22 1 51 -18 44 -29 -4 -7 -10 -7
-18 0 -7 6 -17 6 -26 1 -8 -6 -25 -10 -38 -10 -14 0 -20 -4 -17 -10 4 -6 1
-18 -6 -26 -7 -9 -14 -22 -15 -30 -3 -19 25 -18 32 1 4 8 14 15 23 15 9 0 22
5 29 12 9 9 12 9 12 0 0 -7 -4 -12 -9 -12 -5 0 -11 -10 -13 -22 -3 -22 -7 -23
-85 -22 -46 1 -80 -2 -77 -7 3 -5 -1 -9 -8 -9 -8 -1 -6 -6 6 -15 13 -10 24
-11 36 -5 10 5 20 7 23 3 4 -3 16 -6 27 -7 37 -2 25 -21 -23 -35 -26 -8 -46
-19 -44 -25 5 -14 64 -8 91 9 22 13 96 30 96 21 0 -7 -53 -31 -120 -54 -30
-11 -64 -23 -75 -27 -11 -5 -17 -5 -13 0 4 4 -1 16 -12 25 -14 12 -30 15 -62
11 -46 -6 -54 -22 -16 -32 22 -6 22 -6 -6 -14 -20 -6 -31 -4 -34 3 -2 7 -10
12 -17 12 -8 0 -11 7 -8 20 4 14 14 20 33 20 15 0 33 7 41 16 11 13 9 14 -14
9 -17 -5 -33 -2 -42 5 -11 9 -15 10 -15 1 0 -8 -6 -7 -16 3 -14 15 -35 15 -81
1 -7 -2 -15 0 -18 5 -4 6 -3 10 2 10 10 0 32 47 25 55 -3 3 -18 5 -33 5 -15 0
-29 7 -33 15 -3 9 0 15 8 15 7 0 19 7 26 15 10 12 28 15 64 13 67 -4 66 -22
-1 -26 -29 -2 -53 -8 -53 -13 0 -6 27 -9 68 -7 l67 3 0 30 c0 25 -5 32 -35 41
-70 23 -39 42 58 35 22 -1 32 3 32 12 0 20 -25 28 -53 18 -36 -13 -107 -22
-107 -13 0 10 92 48 135 56 39 8 68 -9 35 -19 -21 -7 -21 -8 -6 -17 24 -13
114 28 97 45 -6 6 -11 21 -11 33 0 22 7 25 67 33 8 0 12 -8 10 -19z m969
-2258 c5 -5 34 -17 65 -26 49 -15 58 -21 63 -47 4 -20 11 -29 25 -29 21 0 45
-23 34 -33 -3 -4 0 -7 7 -7 9 0 7 -5 -5 -14 -14 -10 -19 -24 -17 -50 2 -26 -1
-36 -10 -34 -7 1 -23 -4 -36 -11 -23 -12 -23 -13 -6 -32 9 -10 25 -19 34 -19
27 0 40 -20 29 -47 -5 -14 -7 -28 -4 -32 2 -5 -7 -6 -21 -3 -21 4 -25 1 -22
-14 3 -16 14 -20 60 -22 47 -2 59 -7 73 -28 9 -13 13 -29 10 -34 -15 -24 -13
-49 3 -55 23 -7 21 -44 -4 -90 -17 -31 -17 -37 -4 -46 8 -5 31 -8 51 -6 26 3
39 0 46 -12 13 -21 -8 -46 -26 -28 -15 15 -24 3 -17 -21 7 -21 33 -32 79 -32
15 0 27 -4 27 -10 0 -5 -11 -10 -25 -10 -14 0 -25 -4 -25 -10 0 -5 -5 -9 -12
-7 -6 1 -16 -10 -21 -25 -13 -35 2 -54 53 -68 27 -7 40 -17 44 -34 4 -17 15
-25 42 -29 43 -7 64 -23 64 -49 0 -29 -26 -32 -88 -10 -31 11 -83 22 -115 25
-74 7 -103 26 -117 77 -6 22 -20 44 -30 50 -30 16 -27 76 5 106 l26 24 -21 40
c-13 26 -27 40 -40 40 -11 0 -43 8 -72 19 -29 10 -63 19 -76 19 -29 1 -76 40
-90 75 -7 20 -17 27 -36 27 -20 0 -26 5 -26 21 0 11 5 17 10 14 6 -3 10 -1 10
4 0 13 -2 13 -35 1 -62 -23 -78 48 -37 160 11 30 18 58 16 62 -3 5 5 8 18 9
13 1 32 2 43 3 11 1 30 3 42 4 15 1 25 11 29 26 4 17 11 22 24 19 24 -6 22 26
-4 80 -10 20 -16 47 -13 59 4 14 0 26 -11 35 -13 10 -14 13 -2 11 8 -2 14 3
13 10 -3 14 9 16 23 4z m-5162 -628 c3 -9 6 -19 6 -23 0 -15 -152 -141 -171
-141 -31 0 -23 38 21 96 55 71 129 106 144 68z m-254 -694 c35 -35 35 -63 -2
-122 -42 -64 -59 -80 -77 -68 -10 5 -12 19 -8 44 4 27 2 38 -11 46 -12 8 -14
13 -4 16 6 3 12 14 12 25 0 11 7 22 15 25 8 4 12 11 8 17 -6 10 22 37 39 37 4
0 17 -9 28 -20z m1195 -111 c10 -31 27 -22 20 10 -4 20 -2 30 9 34 10 4 22 -9
40 -43 35 -67 34 -80 -9 -80 -24 0 -37 -6 -45 -20 -6 -11 -19 -20 -30 -20 -22
0 -60 -50 -60 -79 0 -12 -6 -24 -13 -27 -7 -2 -26 -27 -42 -54 -16 -28 -32
-50 -37 -50 -28 0 -9 78 30 122 21 23 33 58 46 128 4 27 38 90 48 90 5 0 6 10
2 23 -7 22 -6 22 14 3 12 -10 24 -27 27 -37z m-310 28 c1 -1 9 -15 19 -31 17
-27 20 -28 31 -13 10 14 18 15 39 8 23 -9 25 -13 16 -37 -6 -14 -7 -30 -4 -35
3 -6 -1 -25 -10 -43 -14 -30 -20 -33 -56 -33 -48 0 -58 11 -89 102 -31 87 -29
98 16 90 20 -3 37 -7 38 -8z m-696 -184 c39 -23 50 -66 25 -94 -15 -16 -16
-22 -5 -28 9 -6 10 -11 3 -15 -6 -4 -9 -13 -6 -20 6 -16 -20 -71 -38 -82 -7
-4 -10 -4 -6 0 9 10 -28 46 -48 46 -11 0 -15 6 -11 20 3 10 -1 24 -7 29 -7 6
-14 36 -15 67 -3 88 38 117 108 77z"/>
</g>
</svg>
